External Loads File
version=1
nRows=85
nColumns=13
Range=5.000000e-03-10 seconds
endheader
time 	forceRightX 	forceRightY 	forceRightZ 	pointRightX 	pointRightY 	pointRightZ 	forceLeftX 	forceLeftY 	forceLeftZ 	pointLeftX 	pointLeftY 	pointLeftZ 		
5.005000 43.118742 758.869697 -0.000000 0.399168 0.194747 -0.106741 -16.156053 -35.501951 -0.000000 0.201952 0.427094 -0.352121
5.010000 68.351863 736.185911 -0.000000 0.392464 0.187047 -0.106564 -24.069988 -38.049945 -0.000000 0.208713 0.435663 -0.351739
5.015000 91.902874 709.240319 -0.000000 0.385345 0.179893 -0.106317 -32.572126 -39.129861 -0.000000 0.216222 0.443375 -0.351604
5.020000 113.359529 678.049525 -0.000000 0.377907 0.173289 -0.106038 -41.344466 -38.181117 -0.000000 0.224106 0.450437 -0.351477
5.025000 132.793085 642.655476 -0.000000 0.370111 0.167360 -0.105750 -50.078397 -34.672399 -0.000000 0.232260 0.457015 -0.351527
5.030000 150.033818 603.432593 -0.000000 0.361847 0.162018 -0.105783 -58.395187 -28.180455 -0.000000 0.240509 0.462888 -0.351639
5.035000 165.331602 561.115023 -0.000000 0.353440 0.157369 -0.105409 -65.836837 -18.427309 -0.000000 0.249297 0.468155 -0.352006
5.040000 179.044587 516.852074 -0.000000 0.344197 0.153279 -0.105777 -71.834385 -5.317517 -0.000000 0.258227 0.472788 -0.352260
5.045000 189.792864 472.817410 -0.000000 0.334926 0.149977 -0.105655 -75.776879 10.788179 -0.000000 0.267215 0.476870 -0.352700
5.050000 198.220964 430.744705 -0.000000 0.325345 0.147270 -0.105483 -77.227018 29.574609 -0.000000 0.276218 0.480352 -0.353126
5.055000 204.504352 392.306286 -0.000000 0.315386 0.145066 -0.105158 -75.969445 50.547582 -0.000000 0.285001 0.483238 -0.353694
5.060000 208.338917 358.892499 -0.000000 0.305435 0.143479 -0.105201 -72.239768 73.177752 -0.000000 0.293247 0.485099 -0.353854
5.065000 210.837723 330.280365 -0.000000 0.295395 0.142570 -0.105069 -66.434628 97.503415 -0.000000 0.301280 0.486570 -0.354413
5.070000 211.912302 305.960144 -0.000000 0.285467 0.142394 -0.105047 -59.446765 123.693696 -0.000000 0.308799 0.487607 -0.354946
5.075000 212.060276 284.231408 -0.000000 0.275670 0.142647 -0.104855 -52.234664 152.268073 -0.000000 0.315981 0.488153 -0.355386
5.080000 211.480585 262.968288 -0.000000 0.266099 0.143605 -0.104992 -45.919103 183.635457 -0.000000 0.322820 0.487949 -0.355903
5.085000 210.419570 239.680726 -0.000000 0.256742 0.145336 -0.105118 -41.454305 217.866733 -0.000000 0.329482 0.486871 -0.356517
5.090000 208.676850 212.236142 -0.000000 0.247647 0.147662 -0.105360 -39.774461 254.500197 -0.000000 0.336082 0.485076 -0.357220
5.095000 205.585172 179.299899 -0.000000 0.239044 0.150725 -0.105533 -41.944501 292.609950 -0.000000 0.342439 0.482677 -0.357824
5.100000 200.772056 139.863737 -0.000000 0.230824 0.154327 -0.105700 -48.086190 331.031913 -0.000000 0.348707 0.478913 -0.358607
5.105000 193.495951 94.100960 -0.000000 0.223081 0.158615 -0.105917 -58.084581 368.339132 -0.000000 0.355242 0.474427 -0.359321
5.110000 182.936633 43.539830 -0.000000 0.215940 0.163383 -0.106164 -72.216133 402.981900 -0.000000 0.361679 0.469373 -0.360059
5.115000 168.818998 -9.964392 -0.000000 0.209271 0.168785 -0.106386 -89.553500 433.853943 -0.000000 0.368249 0.463882 -0.360568
5.120000 151.050795 -63.790615 -0.000000 0.203005 0.174683 -0.106602 -109.142660 460.367665 -0.000000 0.374833 0.457528 -0.361092
5.125000 130.005288 -114.843266 -0.000000 0.197225 0.181018 -0.106798 -130.406908 482.388594 -0.000000 0.381414 0.450584 -0.361548
5.130000 106.602296 -160.158252 -0.000000 0.191856 0.187645 -0.106728 -152.805301 500.177922 -0.000000 0.387849 0.443167 -0.361929
5.135000 81.966985 -197.385344 -0.000000 0.186926 0.194651 -0.106737 -175.392839 514.457778 -0.000000 0.394320 0.435247 -0.362013
5.140000 57.547067 -224.844919 -0.000000 0.182235 0.202133 -0.106839 -197.826168 526.101767 -0.000000 0.400435 0.426927 -0.362066
5.145000 34.887618 -241.818341 -0.000000 0.178086 0.209953 -0.106833 -219.779592 536.149659 -0.000000 0.406311 0.418186 -0.362050
5.150000 14.961804 -248.590870 -0.000000 0.174004 0.218112 -0.106917 -239.822765 546.026043 -0.000000 0.411920 0.408977 -0.362033
5.155000 -1.233596 -246.194110 -0.000000 0.170311 0.226791 -0.106990 -257.314629 556.641471 -0.000000 0.417290 0.399416 -0.361733
5.160000 -13.153923 -236.311673 -0.000000 0.166932 0.235810 -0.107105 -271.778422 568.585990 -0.000000 0.422390 0.389511 -0.361375
5.165000 -20.514890 -221.009383 -0.000000 0.163994 0.244970 -0.107129 -283.571764 581.840337 -0.000000 0.426798 0.379271 -0.361319
5.170000 -24.138409 -202.344760 -0.000000 0.161510 0.254676 -0.107208 -291.586500 596.941043 -0.000000 0.430599 0.368747 -0.361292
5.175000 -24.422638 -182.176604 -0.000000 0.159473 0.264471 -0.107178 -296.856291 613.279967 -0.000000 0.433688 0.358193 -0.361276
5.180000 -22.577338 -161.837174 -0.000000 0.158013 0.274649 -0.107359 -298.741925 631.019053 -0.000000 0.436126 0.347596 -0.361058
5.185000 -19.595381 -142.195486 -0.000000 0.157083 0.285058 -0.107510 -297.196836 650.049835 -0.000000 0.437961 0.336818 -0.360809
5.190000 -16.227540 -123.728561 -0.000000 0.156750 0.295595 -0.107747 -292.444576 670.108017 -0.000000 0.439337 0.325854 -0.360347
5.195000 -13.064880 -106.650378 -0.000000 0.157044 0.306390 -0.108012 -283.995908 691.051067 -0.000000 0.440152 0.314686 -0.360672
5.200000 -10.226278 -91.143603 -0.000000 0.157547 0.317222 -0.108404 -272.619407 711.940546 -0.000000 0.440475 0.303559 -0.360468
5.205000 -7.898948 -77.416207 -0.000000 0.158938 0.328122 -0.108670 -257.950335 732.121510 -0.000000 0.440147 0.292501 -0.360438
5.210000 -6.148235 -65.742831 -0.000000 0.160883 0.338984 -0.109057 -240.325507 750.576555 -0.000000 0.439233 0.281658 -0.360822
5.215000 -5.138442 -56.404295 -0.000000 0.163193 0.349872 -0.109497 -219.219269 766.619403 -0.000000 0.437459 0.270937 -0.360346
5.220000 -4.950384 -49.626230 -0.000000 0.166016 0.360732 -0.109770 -195.333700 779.344006 -0.000000 0.435011 0.260478 -0.360235
5.225000 -5.775677 -45.463794 -0.000000 0.169482 0.371790 -0.110128 -168.349368 788.358222 -0.000000 0.431987 0.250240 -0.359984
5.230000 -7.679712 -43.782791 -0.000000 0.173654 0.382265 -0.110318 -140.541612 792.913308 -0.000000 0.428482 0.240169 -0.359747
5.235000 -10.848134 -44.234063 -0.000000 0.178135 0.392537 -0.110816 -111.784014 793.044740 -0.000000 0.424418 0.230211 -0.359686
5.240000 -15.286361 -46.309918 -0.000000 0.183212 0.402456 -0.111216 -83.365199 788.728687 -0.000000 0.419927 0.220618 -0.359626
5.245000 -20.941494 -49.346843 -0.000000 0.188843 0.412062 -0.111567 -55.335189 780.275728 -0.000000 0.414886 0.211337 -0.359568
5.250000 -27.616047 -52.599645 -0.000000 0.194983 0.421340 -0.111803 -28.173394 767.946412 -0.000000 0.409391 0.202379 -0.359567
5.255000 -35.018053 -55.335743 -0.000000 0.201658 0.430053 -0.111799 -2.354231 751.943423 -0.000000 0.403401 0.193854 -0.359605
5.260000 -42.850935 -56.901244 -0.000000 0.208737 0.438313 -0.112492 22.094132 732.425422 -0.000000 0.396986 0.185814 -0.359600
5.265000 -50.742182 -56.835335 -0.000000 0.215976 0.446283 -0.112683 44.024072 709.612389 -0.000000 0.390600 0.178343 -0.361233
5.270000 -58.604345 -54.568682 -0.000000 0.223649 0.453553 -0.113071 65.688088 683.574606 -0.000000 0.383313 0.171251 -0.361298
5.275000 -66.149206 -49.794299 -0.000000 0.231644 0.459909 -0.113188 86.925182 654.460675 -0.000000 0.374874 0.164921 -0.359515
5.280000 -72.956566 -42.547931 -0.000000 0.239889 0.466015 -0.113144 106.100358 622.857885 -0.000000 0.366629 0.159127 -0.359469
5.285000 -78.807204 -32.752683 -0.000000 0.248678 0.471327 -0.113336 124.269479 589.288725 -0.000000 0.357981 0.154128 -0.359439
5.290000 -83.356464 -20.645623 -0.000000 0.257323 0.476041 -0.113608 140.643978 554.799452 -0.000000 0.348934 0.149742 -0.359393
5.295000 -86.348008 -6.267952 -0.000000 0.266437 0.480186 -0.113305 156.363792 520.106054 -0.000000 0.339385 0.146022 -0.359265
5.300000 -87.466958 9.976272 -0.000000 0.275436 0.483814 -0.113359 170.304566 486.408016 -0.000000 0.329482 0.143142 -0.359061
5.305000 -86.586326 27.815407 -0.000000 0.283972 0.486884 -0.113341 181.991112 454.548458 -0.000000 0.319320 0.140864 -0.358784
5.310000 -83.706114 47.340446 -0.000000 0.292485 0.489359 -0.113360 191.917479 424.563378 -0.000000 0.309009 0.139149 -0.358618
5.315000 -79.064223 68.704164 -0.000000 0.300736 0.491151 -0.113342 199.556493 396.359295 -0.000000 0.298767 0.137980 -0.358630
5.320000 -73.040906 92.419597 -0.000000 0.308849 0.492303 -0.113435 205.027375 369.067269 -0.000000 0.288739 0.137484 -0.358817
5.325000 -66.195570 119.100054 -0.000000 0.316533 0.492735 -0.113243 208.304747 341.556493 -0.000000 0.278844 0.137767 -0.358592
5.330000 -59.146078 149.360855 -0.000000 0.323919 0.492378 -0.112811 209.592855 312.527291 -0.000000 0.269252 0.138870 -0.357820
5.335000 -52.562763 183.592916 -0.000000 0.330887 0.490682 -0.112186 209.072343 280.844073 -0.000000 0.259876 0.140428 -0.357309
5.340000 -47.092469 221.812486 -0.000000 0.337627 0.488716 -0.111569 206.899534 245.650869 -0.000000 0.250646 0.142821 -0.357442
5.345000 -43.615578 263.469749 -0.000000 0.344138 0.485960 -0.110928 202.809072 206.801889 -0.000000 0.241830 0.145706 -0.357063
5.350000 -42.659775 307.500297 -0.000000 0.350560 0.482434 -0.110419 196.718868 164.426796 -0.000000 0.233392 0.149224 -0.356781
5.355000 -44.745758 352.284190 -0.000000 0.356956 0.478174 -0.109960 188.311427 119.307364 -0.000000 0.225445 0.153224 -0.356561
5.360000 -49.860052 395.939132 -0.000000 0.363402 0.473017 -0.109383 177.443859 72.488683 -0.000000 0.217983 0.157823 -0.356504
5.365000 -57.958186 436.582954 -0.000000 0.369967 0.467118 -0.108858 163.999988 25.479613 -0.000000 0.211059 0.162920 -0.356308
5.370000 -68.874027 472.663528 -0.000000 0.376542 0.460553 -0.108319 148.100600 -20.003157 -0.000000 0.204692 0.168599 -0.356169
5.375000 -82.120338 503.168314 -0.000000 0.383211 0.453435 -0.107901 130.145271 -62.240692 -0.000000 0.198760 0.174624 -0.356086
5.380000 -96.930698 527.669294 -0.000000 0.389835 0.445844 -0.107840 110.724501 -99.628374 -0.000000 0.193145 0.181239 -0.356036
5.385000 -112.883122 546.183848 -0.000000 0.396165 0.437624 -0.107750 90.634420 -130.723012 -0.000000 0.187920 0.188299 -0.355936
5.390000 -128.769187 559.331446 -0.000000 0.402526 0.429043 -0.107619 70.576027 -154.591804 -0.000000 0.182915 0.195776 -0.355794
5.395000 -144.566783 567.860382 -0.000000 0.408632 0.420110 -0.107095 51.565368 -170.554487 -0.000000 0.178247 0.203562 -0.355912
5.400000 -159.888224 572.896004 -0.000000 0.414070 0.410684 -0.107353 34.508195 -178.564930 -0.000000 0.174025 0.211835 -0.355806
5.405000 -174.380575 575.791169 -0.000000 0.419243 0.401029 -0.107307 20.151881 -179.185245 -0.000000 0.170187 0.220418 -0.355686
5.410000 -187.659500 577.988868 -0.000000 0.424028 0.391126 -0.107250 8.959128 -173.524734 -0.000000 0.166648 0.229406 -0.355621
5.415000 -199.484417 580.784701 -0.000000 0.428323 0.380849 -0.107207 1.099679 -163.038537 -0.000000 0.163533 0.238748 -0.355549
5.420000 -209.589853 585.225084 -0.000000 0.432117 0.370314 -0.107192 -3.606994 -149.275982 -0.000000 0.160867 0.248441 -0.355585
5.425000 -218.017928 591.884139 -0.000000 0.435348 0.359661 -0.107157 -5.534740 -133.622191 -0.000000 0.158695 0.258331 -0.355574
